<svg width="294" height="68" viewBox="0 0 294 68" fill="none" xmlns="http://www.w3.org/2000/svg">
<path d="M9.632 64.32C8.96 64.128 8.168 63.816 7.256 63.384C6.344 62.952 5.456 62.472 4.592 61.944C3.728 61.416 2.936 60.84 2.216 60.216C1.544 59.64 1.136 59.112 0.992001 58.632C2.672 58.44 4.712 57.6 7.112 56.112C9.56 54.624 12.08 52.752 14.672 50.496C17.264 48.192 19.784 45.6 22.232 42.72C24.68 39.792 26.744 36.792 28.424 33.72C27.368 34.824 26.192 35.928 24.896 37.032C23.648 38.136 22.352 39.144 21.008 40.056C19.712 40.968 18.416 41.712 17.12 42.288C15.824 42.864 14.624 43.176 13.52 43.224C12.512 42.696 11.528 41.976 10.568 41.064C9.608 40.152 8.744 39.168 7.976 38.112C7.208 37.008 6.584 35.88 6.104 34.728C5.624 33.528 5.384 32.376 5.384 31.272C5.384 29.832 5.792 28.248 6.608 26.52C7.424 24.792 8.48 23.064 9.776 21.336C11.12 19.56 12.632 17.856 14.312 16.224C15.992 14.592 17.72 13.152 19.496 11.904C21.272 10.608 23 9.576 24.68 8.808C26.36 8.04 27.872 7.656 29.216 7.656C32.96 8.424 35.96 9.912 38.216 12.12C40.472 14.28 41.6 17.04 41.6 20.4C41.6 22.32 41.12 24.648 40.16 27.384C39.248 30.072 37.976 32.928 36.344 35.952C34.76 38.928 32.888 41.952 30.728 45.024C28.616 48.048 26.384 50.88 24.032 53.52C21.68 56.112 19.256 58.368 16.76 60.288C14.312 62.208 11.936 63.552 9.632 64.32ZM14.024 39.12C16.376 38.64 18.752 37.632 21.152 36.096C23.6 34.512 25.784 32.688 27.704 30.624C29.624 28.56 31.184 26.376 32.384 24.072C33.632 21.768 34.256 19.608 34.256 17.592C34.256 16.92 34.064 16.224 33.68 15.504C33.344 14.736 32.888 14.016 32.312 13.344C31.736 12.672 31.064 12.096 30.296 11.616C29.576 11.088 28.832 10.704 28.064 10.464C26.912 11.088 25.712 11.928 24.464 12.984C23.216 13.992 21.992 15.144 20.792 16.44C19.64 17.736 18.536 19.128 17.48 20.616C16.472 22.104 15.56 23.592 14.744 25.08C13.976 26.568 13.352 28.032 12.872 29.472C12.44 30.912 12.224 32.232 12.224 33.432C12.224 34.536 12.344 35.592 12.584 36.6C12.872 37.608 13.352 38.448 14.024 39.12ZM59.7952 54.816C61.3792 54.816 62.6032 55.224 63.4672 56.04C64.3792 56.808 64.8352 57.888 64.8352 59.28C64.8352 59.664 64.7872 60.048 64.6912 60.432C64.6432 60.864 64.5712 61.224 64.4752 61.512C63.8512 61.416 63.1552 61.32 62.3872 61.224C61.6192 61.176 60.7072 61.152 59.6512 61.152C58.2112 61.152 56.7232 61.248 55.1872 61.44C53.6992 61.632 52.2352 61.824 50.7952 62.016C49.3552 62.256 47.9632 62.472 46.6192 62.664C45.2752 62.856 44.0272 62.952 42.8752 62.952C41.0032 62.952 39.3952 62.592 38.0512 61.872C36.7072 61.152 35.7952 60.168 35.3152 58.92C35.5072 58.728 35.9632 58.536 36.6832 58.344C37.4512 58.104 38.3632 57.864 39.4192 57.624C40.5232 57.336 41.7472 57.072 43.0912 56.832C44.4832 56.592 45.8992 56.352 47.3392 56.112C48.0112 53.232 48.7552 50.28 49.5712 47.256C50.4352 44.184 51.2992 41.136 52.1632 38.112C53.0752 35.04 54.0112 32.016 54.9712 29.04C55.9312 26.064 56.8912 23.184 57.8512 20.4C56.2192 21.168 54.5152 22.2 52.7392 23.496C51.0112 24.744 49.5232 25.92 48.2752 27.024C47.7472 26.736 47.4832 26.088 47.4832 25.08C49.2592 22.68 51.0592 20.544 52.8832 18.672C54.7072 16.8 56.7232 14.808 58.9312 12.696C59.4592 12.168 60.0832 11.424 60.8032 10.464C61.5712 9.504 62.2192 8.544 62.7472 7.584C63.4192 7.776 64.2592 7.992 65.2672 8.232C66.2752 8.424 67.2592 8.688 68.2192 9.024C69.2272 9.312 70.1152 9.672 70.8832 10.104C71.6992 10.536 72.2512 11.04 72.5392 11.616C71.9152 12.144 71.3392 12.696 70.8112 13.272C70.3312 13.848 69.8992 14.472 69.5152 15.144C68.5552 16.872 67.4272 19.296 66.1312 22.416C64.8832 25.488 63.5872 28.872 62.2432 32.568C60.9472 36.216 59.6272 40.032 58.2832 44.016C56.9872 47.952 55.8112 51.648 54.7552 55.104C55.7632 55.008 56.6752 54.936 57.4912 54.888C58.3552 54.84 59.1232 54.816 59.7952 54.816ZM92.0686 54.816C93.6526 54.816 94.8766 55.224 95.7406 56.04C96.6526 56.808 97.1086 57.888 97.1086 59.28C97.1086 59.664 97.0606 60.048 96.9646 60.432C96.9166 60.864 96.8446 61.224 96.7486 61.512C96.1246 61.416 95.4286 61.32 94.6606 61.224C93.8926 61.176 92.9806 61.152 91.9246 61.152C90.4846 61.152 88.9966 61.248 87.4606 61.44C85.9726 61.632 84.5086 61.824 83.0686 62.016C81.6286 62.256 80.2366 62.472 78.8926 62.664C77.5486 62.856 76.3006 62.952 75.1486 62.952C73.2766 62.952 71.6686 62.592 70.3246 61.872C68.9806 61.152 68.0686 60.168 67.5886 58.92C67.7806 58.728 68.2366 58.536 68.9566 58.344C69.7246 58.104 70.6366 57.864 71.6926 57.624C72.7966 57.336 74.0206 57.072 75.3646 56.832C76.7566 56.592 78.1726 56.352 79.6126 56.112C80.2846 53.232 81.0286 50.28 81.8446 47.256C82.7086 44.184 83.5726 41.136 84.4366 38.112C85.3486 35.04 86.2846 32.016 87.2446 29.04C88.2046 26.064 89.1646 23.184 90.1246 20.4C88.4926 21.168 86.7886 22.2 85.0126 23.496C83.2846 24.744 81.7966 25.92 80.5486 27.024C80.0206 26.736 79.7566 26.088 79.7566 25.08C81.5326 22.68 83.3326 20.544 85.1566 18.672C86.9806 16.8 88.9966 14.808 91.2046 12.696C91.7326 12.168 92.3566 11.424 93.0766 10.464C93.8446 9.504 94.4926 8.544 95.0206 7.584C95.6926 7.776 96.5326 7.992 97.5406 8.232C98.5486 8.424 99.5326 8.688 100.493 9.024C101.501 9.312 102.389 9.672 103.157 10.104C103.973 10.536 104.525 11.04 104.813 11.616C104.189 12.144 103.613 12.696 103.085 13.272C102.605 13.848 102.173 14.472 101.789 15.144C100.829 16.872 99.7006 19.296 98.4046 22.416C97.1566 25.488 95.8606 28.872 94.5166 32.568C93.2206 36.216 91.9006 40.032 90.5566 44.016C89.2606 47.952 88.0846 51.648 87.0286 55.104C88.0366 55.008 88.9486 54.936 89.7646 54.888C90.6286 54.84 91.3966 54.816 92.0686 54.816ZM168.083 11.472C168.227 12.288 168.323 12.864 168.371 13.2C168.467 13.488 168.515 13.896 168.515 14.424C168.515 16.008 168.155 17.496 167.435 18.888C166.763 20.232 165.827 21.192 164.627 21.768C163.667 20.472 162.491 19.368 161.099 18.456C159.707 17.496 158.171 16.728 156.491 16.152C154.859 15.528 153.155 15.072 151.379 14.784C149.603 14.496 147.875 14.352 146.195 14.352C144.515 14.352 142.931 14.496 141.443 14.784C140.003 15.024 138.707 15.384 137.555 15.864C136.451 16.296 135.563 16.848 134.891 17.52C134.267 18.192 133.955 18.96 133.955 19.824C134.099 20.88 134.747 21.96 135.899 23.064C137.051 24.12 138.467 25.176 140.147 26.232C141.827 27.24 143.675 28.248 145.691 29.256C147.755 30.264 149.771 31.224 151.739 32.136C154.187 33.288 156.299 34.368 158.075 35.376C159.851 36.336 161.315 37.416 162.467 38.616C163.619 39.768 164.483 41.088 165.059 42.576C165.635 44.064 165.923 45.864 165.923 47.976C165.923 50.424 165.515 52.728 164.699 54.888C163.883 57 162.683 58.848 161.099 60.432C159.563 62.016 157.691 63.24 155.483 64.104C153.275 65.016 150.803 65.472 148.067 65.472C145.379 65.472 142.475 65.064 139.355 64.248C136.235 63.432 133.307 62.304 130.571 60.864C127.883 59.472 125.627 57.864 123.803 56.04C122.027 54.168 121.139 52.2 121.139 50.136C121.139 49.176 121.403 47.952 121.931 46.464C122.507 44.976 123.515 43.416 124.955 41.784C125.099 43.224 125.867 44.928 127.259 46.896C128.699 48.864 130.835 50.688 133.667 52.368C136.307 53.904 139.019 55.032 141.803 55.752C144.635 56.424 147.275 56.76 149.723 56.76C152.411 56.76 154.595 56.424 156.275 55.752C157.955 55.08 159.275 54.288 160.235 53.376C161.195 52.416 161.867 51.456 162.251 50.496C162.635 49.536 162.851 48.768 162.899 48.192C162.851 47.232 162.395 46.32 161.531 45.456C160.715 44.544 159.587 43.68 158.147 42.864C156.755 42 155.123 41.136 153.251 40.272C151.379 39.408 149.435 38.544 147.419 37.68C144.395 36.336 141.779 35.088 139.571 33.936C137.411 32.736 135.611 31.536 134.171 30.336C132.779 29.088 131.747 27.792 131.075 26.448C130.451 25.104 130.139 23.568 130.139 21.84C130.139 19.152 130.955 16.608 132.587 14.208C134.219 11.808 136.571 9.984 139.643 8.736C141.179 8.064 142.811 7.584 144.539 7.296C146.315 7.008 148.043 6.864 149.723 6.864C152.891 6.864 155.987 7.296 159.011 8.16C162.035 9.024 165.059 10.128 168.083 11.472ZM190.99 58.416C190.078 57.648 189.454 56.688 189.118 55.536C188.83 54.384 188.686 53.4 188.686 52.584C188.686 51.576 188.806 50.712 189.046 49.992C188.854 49.992 188.422 50.376 187.75 51.144C187.078 51.912 186.334 52.824 185.518 53.88C184.75 54.936 183.982 55.968 183.214 56.976C182.446 57.984 181.87 58.728 181.486 59.208C180.862 59.88 180.262 60.408 179.686 60.792C179.158 61.176 178.726 61.392 178.39 61.44C177.622 61.392 176.806 61.224 175.942 60.936C175.126 60.696 174.334 60.336 173.566 59.856C172.846 59.376 172.198 58.8 171.622 58.128C171.094 57.456 170.734 56.688 170.542 55.824C170.542 54.48 170.566 53.376 170.614 52.512C170.71 51.648 170.878 50.712 171.118 49.704C171.55 47.88 172.174 45.816 172.99 43.512C173.854 41.208 174.838 38.952 175.942 36.744C177.046 34.488 178.27 32.4 179.614 30.48C181.006 28.512 182.47 26.976 184.006 25.872C184.438 25.872 184.942 25.92 185.518 26.016C186.094 26.064 186.67 26.184 187.246 26.376C187.87 26.568 188.446 26.808 188.974 27.096C189.55 27.336 190.03 27.672 190.414 28.104C189.982 28.584 188.878 30.192 187.102 32.928C185.374 35.664 183.43 39.6 181.27 44.736C181.03 45.264 180.742 46.032 180.406 47.04C180.07 48.048 179.734 49.104 179.398 50.208C179.062 51.312 178.774 52.392 178.534 53.448C178.342 54.504 178.246 55.344 178.246 55.968C178.246 56.352 178.294 56.64 178.39 56.832C178.534 57.024 178.654 57.168 178.75 57.264C179.47 56.976 180.382 56.184 181.486 54.888C182.59 53.592 184.126 51.6 186.094 48.912C186.574 48.24 187.126 47.472 187.75 46.608C188.422 45.744 189.094 44.832 189.766 43.872C190.438 42.864 191.062 41.832 191.638 40.776C192.262 39.72 192.766 38.664 193.15 37.608C193.342 37.032 193.582 36.36 193.87 35.592C194.206 34.776 194.59 33.936 195.022 33.072C195.502 32.208 196.03 31.344 196.606 30.48C197.23 29.568 197.95 28.728 198.766 27.96C199.39 27.96 200.062 28.032 200.782 28.176C201.502 28.32 202.174 28.512 202.798 28.752C203.47 28.944 204.046 29.184 204.526 29.472C205.006 29.712 205.366 29.976 205.606 30.264C204.742 32.376 203.782 34.464 202.726 36.528C201.67 38.592 200.686 40.632 199.774 42.648C198.862 44.616 198.094 46.584 197.47 48.552C196.846 50.52 196.534 52.44 196.534 54.312C196.534 55.32 196.606 56.208 196.75 56.976C196.942 57.696 197.134 58.32 197.326 58.848C197.518 59.328 197.686 59.736 197.83 60.072C198.022 60.408 198.118 60.696 198.118 60.936C198.118 60.984 198.07 61.056 197.974 61.152C197.926 61.2 197.878 61.224 197.83 61.224C197.494 61.224 197.062 61.152 196.534 61.008C196.006 60.864 195.406 60.648 194.734 60.36C194.11 60.12 193.462 59.832 192.79 59.496C192.166 59.16 191.566 58.8 190.99 58.416ZM231.824 31.344C231.776 32.256 231.608 33.216 231.32 34.224C231.08 35.184 230.768 36.072 230.384 36.888C230 37.656 229.592 38.304 229.16 38.832C228.728 39.36 228.32 39.624 227.936 39.624C227.408 39.576 227.096 39.216 227 38.544C227 38.4 227.048 38.184 227.144 37.896C227.288 37.56 227.432 37.2 227.576 36.816C227.72 36.432 227.84 36.048 227.936 35.664C228.08 35.28 228.152 34.944 228.152 34.656C228.152 33.984 227.984 33.432 227.648 33C227.36 32.52 226.952 32.28 226.424 32.28C224.504 32.28 223.04 33.48 222.032 35.88C221.024 38.28 220.52 41.808 220.52 46.464C220.52 46.944 220.544 47.232 220.592 47.328C221.6 47.28 222.488 47.256 223.256 47.256C224.072 47.208 224.864 47.184 225.632 47.184C225.68 47.28 225.704 47.472 225.704 47.76C225.704 48.192 225.608 48.504 225.416 48.696C224.312 48.936 223.424 49.152 222.752 49.344C222.128 49.488 221.648 49.632 221.312 49.776C220.976 49.92 220.76 50.088 220.664 50.28C220.616 50.424 220.592 50.64 220.592 50.928C220.592 51.312 220.592 51.696 220.592 52.08C220.64 52.464 220.664 52.944 220.664 53.52C220.664 57.552 219.56 60.792 217.352 63.24C215.192 65.688 212.168 67.104 208.28 67.488C207.608 67.44 206.912 67.248 206.192 66.912C205.472 66.576 204.776 66.144 204.104 65.616C203.48 65.088 202.928 64.488 202.448 63.816C201.968 63.192 201.632 62.544 201.44 61.872C201.44 60.048 201.824 58.32 202.592 56.688C203.36 55.008 204.392 53.544 205.688 52.296C207.032 51 208.592 49.968 210.368 49.2C212.192 48.384 214.16 47.904 216.272 47.76C216.272 46.56 216.152 45.384 215.912 44.232C215.672 43.08 215.408 41.976 215.12 40.92C214.88 39.816 214.64 38.76 214.4 37.752C214.16 36.696 214.04 35.664 214.04 34.656C214.04 33.36 214.304 32.088 214.832 30.84C215.36 29.544 216.056 28.368 216.92 27.312C217.784 26.208 218.792 25.272 219.944 24.504C221.096 23.736 222.296 23.208 223.544 22.92C224.072 23.064 224.768 23.496 225.632 24.216C226.544 24.888 227.432 25.656 228.296 26.52C229.16 27.384 229.928 28.272 230.6 29.184C231.272 30.048 231.68 30.768 231.824 31.344ZM208.064 64.176C209.216 63.696 210.296 63 211.304 62.088C212.36 61.176 213.272 60.144 214.04 58.992C214.808 57.84 215.408 56.616 215.84 55.32C216.32 54.024 216.56 52.752 216.56 51.504C215.6 51.648 214.544 52.104 213.392 52.872C212.24 53.592 211.16 54.48 210.152 55.536C209.144 56.544 208.304 57.6 207.632 58.704C206.96 59.808 206.624 60.768 206.624 61.584C206.624 62.64 207.104 63.504 208.064 64.176ZM231.803 58.776C231.803 57.096 231.971 55.128 232.307 52.872C232.643 50.568 233.123 48.12 233.747 45.528C234.419 42.936 235.187 40.224 236.051 37.392C236.963 34.56 237.971 31.728 239.075 28.896C240.035 26.352 241.139 23.784 242.387 21.192C243.683 18.6 245.075 16.056 246.563 13.56C248.051 11.064 249.587 8.688 251.171 6.432C252.803 4.176 254.435 2.112 256.067 0.239997C256.835 0.239997 257.651 0.335997 258.515 0.527997C259.427 0.719998 260.291 0.983997 261.107 1.32C261.971 1.608 262.739 1.968 263.411 2.4C264.131 2.832 264.707 3.264 265.139 3.696C261.539 7.392 258.299 11.136 255.419 14.928C252.539 18.672 250.259 22.2 248.579 25.512C247.667 27.336 246.827 29.04 246.059 30.624C245.339 32.208 244.667 33.792 244.043 35.376C243.419 36.912 242.843 38.472 242.315 40.056C241.835 41.592 241.379 43.224 240.947 44.952C250.163 33.192 257.003 27.312 261.467 27.312C262.715 27.312 264.059 27.72 265.499 28.536C266.939 29.352 268.211 30.456 269.315 31.848C267.827 33.48 266.291 35.448 264.707 37.752C263.123 40.056 261.659 42.384 260.315 44.736C259.019 47.04 257.939 49.2 257.075 51.216C256.259 53.184 255.851 54.648 255.851 55.608C255.851 56.088 255.923 56.424 256.067 56.616C256.211 56.76 256.523 56.832 257.003 56.832C257.723 56.832 258.299 56.736 258.731 56.544C259.163 56.352 259.427 56.256 259.523 56.256C259.763 56.64 259.907 56.904 259.955 57.048C260.003 57.192 260.027 57.312 260.027 57.408C260.027 57.6 259.739 57.888 259.163 58.272C258.587 58.608 257.891 58.968 257.075 59.352C256.307 59.688 255.539 60 254.771 60.288C254.003 60.576 253.427 60.72 253.043 60.72C252.563 60.72 252.083 60.576 251.603 60.288C251.123 60.048 250.691 59.712 250.307 59.28C249.971 58.848 249.683 58.368 249.443 57.84C249.251 57.312 249.155 56.76 249.155 56.184C249.155 55.464 249.347 54.408 249.731 53.016C250.163 51.576 250.739 49.92 251.459 48.048C252.179 46.128 253.043 44.04 254.051 41.784C255.059 39.528 256.139 37.224 257.291 34.872C257.291 34.68 257.195 34.584 257.003 34.584C256.859 34.584 256.475 34.776 255.851 35.16C255.275 35.544 254.723 35.928 254.195 36.312C252.467 37.608 250.715 39.216 248.939 41.136C247.211 43.008 245.507 45.072 243.827 47.328C242.195 49.584 240.635 51.984 239.147 54.528C237.707 57.024 236.459 59.544 235.403 62.088C235.259 62.424 235.043 62.736 234.755 63.024C234.467 63.312 234.227 63.456 234.035 63.456C233.891 63.456 233.675 63.288 233.387 62.952C233.147 62.616 232.907 62.184 232.667 61.656C232.475 61.176 232.283 60.672 232.091 60.144C231.899 59.616 231.803 59.16 231.803 58.776ZM269.142 55.176C269.142 54.744 269.166 54.216 269.214 53.592C269.31 52.92 269.454 52.056 269.646 51C269.838 49.896 270.078 48.576 270.366 47.04C270.702 45.504 271.11 43.656 271.59 41.496C271.686 41.016 271.902 40.248 272.238 39.192C272.574 38.136 273.006 37.032 273.534 35.88C274.11 34.68 274.782 33.528 275.55 32.424C276.366 31.32 277.326 30.504 278.43 29.976C279.246 30.168 280.326 30.672 281.67 31.488C283.014 32.256 284.166 33.336 285.126 34.728C284.022 35.976 283.086 37.224 282.318 38.472C281.598 39.72 280.926 41.016 280.302 42.36C279.726 43.704 279.174 45.096 278.646 46.536C278.166 47.976 277.614 49.488 276.99 51.072C276.462 52.416 275.982 53.808 275.55 55.248C275.118 56.64 274.878 57.864 274.83 58.92C274.83 59.784 274.806 60.384 274.758 60.72C274.758 61.104 274.638 61.296 274.398 61.296C274.206 61.296 273.822 61.176 273.246 60.936C272.67 60.696 272.07 60.336 271.446 59.856C270.87 59.328 270.342 58.68 269.862 57.912C269.382 57.144 269.142 56.232 269.142 55.176ZM282.894 23.928C282.894 23.64 282.966 23.208 283.11 22.632C282.87 22.392 282.654 22.032 282.462 21.552C282.318 21.072 282.246 20.64 282.246 20.256C282.246 19.824 282.294 19.248 282.39 18.528C282.534 17.76 282.702 16.944 282.894 16.08C283.086 15.216 283.326 14.328 283.614 13.416C283.902 12.456 284.19 11.592 284.478 10.824C285.054 10.824 285.75 10.992 286.566 11.328C287.43 11.616 288.294 12.024 289.158 12.552C290.022 13.032 290.814 13.584 291.534 14.208C292.254 14.784 292.806 15.336 293.19 15.864C292.662 16.392 291.966 17.136 291.102 18.096C290.238 19.008 289.398 19.992 288.582 21.048C287.766 22.056 287.022 23.016 286.35 23.928C285.678 24.84 285.246 25.488 285.054 25.872C284.478 25.776 283.974 25.536 283.542 25.152C283.11 24.72 282.894 24.312 282.894 23.928Z" fill="#F7F7F7"/>
</svg>
