<svg width="294" height="68" fill="none" xmlns="http://www.w3.org/2000/svg"><path d="M9.632 64.32c-.672-.192-1.464-.504-2.376-.936-.912-.432-1.8-.912-2.664-1.44a17.75 17.75 0 01-2.376-1.728c-.672-.576-1.08-1.104-1.224-1.584 1.68-.192 3.72-1.032 6.12-2.52 2.448-1.488 4.968-3.36 7.56-5.616 2.592-2.304 5.112-4.896 7.56-7.776 2.448-2.928 4.512-5.928 6.192-9a47.513 47.513 0 01-3.528 3.312 38.457 38.457 0 01-3.888 3.024 23.028 23.028 0 01-3.888 2.232c-1.296.576-2.496.888-3.6.936-1.008-.528-1.992-1.248-2.952-2.16a21.543 21.543 0 01-2.592-2.952 18.157 18.157 0 01-1.872-3.384c-.48-1.2-.72-2.352-.72-3.456 0-1.44.408-3.024 1.224-4.752.816-1.728 1.872-3.456 3.168-5.184a44.94 44.94 0 014.536-5.112 42.634 42.634 0 015.184-4.32C21.272 10.608 23 9.576 24.68 8.808c1.68-.768 3.192-1.152 4.536-1.152 3.744.768 6.744 2.256 9 4.464 2.256 2.16 3.384 4.92 3.384 8.28 0 1.92-.48 4.248-1.44 6.984-.912 2.688-2.184 5.544-3.816 8.568-1.584 2.976-3.456 6-5.616 9.072a91.593 91.593 0 01-6.696 8.496c-2.352 2.592-4.776 4.848-7.272 6.768-2.448 1.92-4.824 3.264-7.128 4.032zm4.392-25.2c2.352-.48 4.728-1.488 7.128-3.024a34.494 34.494 0 006.552-5.472c1.92-2.064 3.48-4.248 4.68-6.552 1.248-2.304 1.872-4.464 1.872-6.48 0-.672-.192-1.368-.576-2.088a8.62 8.62 0 00-1.368-2.16 8.731 8.731 0 00-2.016-1.728 7.613 7.613 0 00-2.232-1.152c-1.152.624-2.352 1.464-3.6 2.52a34.96 34.96 0 00-3.672 3.456 48.709 48.709 0 00-3.312 4.176 55.839 55.839 0 00-2.736 4.464 30.899 30.899 0 00-1.872 4.392c-.432 1.44-.648 2.76-.648 3.96 0 1.104.12 2.16.36 3.168.288 1.008.768 1.848 1.44 2.52zm45.771 15.696c1.584 0 2.808.408 3.672 1.224.912.768 1.368 1.848 1.368 3.24 0 .384-.048.768-.144 1.152a5.34 5.34 0 01-.216 1.08 75.075 75.075 0 00-2.088-.288 44.675 44.675 0 00-2.736-.072c-1.44 0-2.928.096-4.464.288-1.488.192-2.952.384-4.392.576-1.44.24-2.832.456-4.176.648a26.586 26.586 0 01-3.744.288c-1.872 0-3.48-.36-4.824-1.08-1.344-.72-2.256-1.704-2.736-2.952.192-.192.648-.384 1.368-.576.768-.24 1.68-.48 2.736-.72a48.153 48.153 0 013.672-.792c1.392-.24 2.808-.48 4.248-.72.672-2.88 1.416-5.832 2.232-8.856.864-3.072 1.728-6.12 2.592-9.144a404.932 404.932 0 012.808-9.072c.96-2.976 1.92-5.856 2.88-8.64-1.632.768-3.336 1.8-5.112 3.096-1.728 1.248-3.216 2.424-4.464 3.528-.528-.288-.792-.936-.792-1.944 1.776-2.4 3.576-4.536 5.4-6.408a242.613 242.613 0 016.048-5.976c.528-.528 1.152-1.272 1.872-2.232.768-.96 1.416-1.92 1.944-2.88.672.192 1.512.408 2.52.648a20.58 20.58 0 012.952.792c1.008.288 1.896.648 2.664 1.08.816.432 1.368.936 1.656 1.512-.624.528-1.2 1.08-1.728 1.656-.48.576-.912 1.2-1.296 1.872-.96 1.728-2.088 4.152-3.384 7.272a294.523 294.523 0 00-3.888 10.152 758.287 758.287 0 00-3.96 11.448 542.044 542.044 0 00-3.528 11.088 76.476 76.476 0 012.736-.216 42.033 42.033 0 012.304-.072zm32.274 0c1.584 0 2.808.408 3.672 1.224.912.768 1.368 1.848 1.368 3.24 0 .384-.048.768-.144 1.152a5.34 5.34 0 01-.216 1.08 75.075 75.075 0 00-2.088-.288 44.675 44.675 0 00-2.736-.072c-1.44 0-2.928.096-4.464.288-1.488.192-2.952.384-4.392.576-1.44.24-2.832.456-4.176.648a26.586 26.586 0 01-3.744.288c-1.872 0-3.48-.36-4.824-1.08-1.344-.72-2.256-1.704-2.736-2.952.192-.192.648-.384 1.368-.576.768-.24 1.68-.48 2.736-.72a48.153 48.153 0 013.672-.792c1.392-.24 2.808-.48 4.248-.72.672-2.88 1.416-5.832 2.232-8.856.864-3.072 1.728-6.12 2.592-9.144a404.932 404.932 0 012.808-9.072c.96-2.976 1.92-5.856 2.88-8.64-1.632.768-3.336 1.8-5.112 3.096-1.728 1.248-3.216 2.424-4.464 3.528-.528-.288-.792-.936-.792-1.944 1.776-2.4 3.576-4.536 5.4-6.408a242.613 242.613 0 016.048-5.976c.528-.528 1.152-1.272 1.872-2.232.768-.96 1.416-1.92 1.944-2.88.672.192 1.512.408 2.52.648a20.58 20.58 0 012.952.792c1.008.288 1.896.648 2.664 1.08.816.432 1.368.936 1.656 1.512-.624.528-1.2 1.08-1.728 1.656-.48.576-.912 1.2-1.296 1.872-.96 1.728-2.088 4.152-3.384 7.272a294.523 294.523 0 00-3.888 10.152 758.287 758.287 0 00-3.96 11.448 542.044 542.044 0 00-3.528 11.088 76.476 76.476 0 012.736-.216 42.033 42.033 0 012.304-.072zm76.014-43.344c.144.816.24 1.392.288 1.728.096.288.144.696.144 1.224 0 1.584-.36 3.072-1.08 4.464-.672 1.344-1.608 2.304-2.808 2.88a13.667 13.667 0 00-3.528-3.312 18.82 18.82 0 00-4.608-2.304 25.867 25.867 0 00-5.112-1.368 32.37 32.37 0 00-5.184-.432c-1.68 0-3.264.144-4.752.432-1.44.24-2.736.6-3.888 1.08-1.104.432-1.992.984-2.664 1.656-.624.672-.936 1.44-.936 2.304.144 1.056.792 2.136 1.944 3.24 1.152 1.056 2.568 2.112 4.248 3.168a82.551 82.551 0 005.544 3.024 329.396 329.396 0 006.048 2.88c2.448 1.152 4.56 2.232 6.336 3.24 1.776.96 3.24 2.04 4.392 3.24a11.337 11.337 0 012.592 3.96c.576 1.488.864 3.288.864 5.4 0 2.448-.408 4.752-1.224 6.912a15.808 15.808 0 01-3.6 5.544c-1.536 1.584-3.408 2.808-5.616 3.672-2.208.912-4.68 1.368-7.416 1.368-2.688 0-5.592-.408-8.712-1.224a41.135 41.135 0 01-8.784-3.384c-2.688-1.392-4.944-3-6.768-4.824-1.776-1.872-2.664-3.84-2.664-5.904 0-.96.264-2.184.792-3.672.576-1.488 1.584-3.048 3.024-4.68.144 1.44.912 3.144 2.304 5.112 1.44 1.968 3.576 3.792 6.408 5.472 2.64 1.536 5.352 2.664 8.136 3.384 2.832.672 5.472 1.008 7.92 1.008 2.688 0 4.872-.336 6.552-1.008 1.68-.672 3-1.464 3.96-2.376.96-.96 1.632-1.92 2.016-2.88.384-.96.6-1.728.648-2.304-.048-.96-.504-1.872-1.368-2.736-.816-.912-1.944-1.776-3.384-2.592-1.392-.864-3.024-1.728-4.896-2.592a232.103 232.103 0 00-5.832-2.592c-3.024-1.344-5.64-2.592-7.848-3.744-2.16-1.2-3.96-2.4-5.4-3.6-1.392-1.248-2.424-2.544-3.096-3.888-.624-1.344-.936-2.88-.936-4.608 0-2.688.816-5.232 2.448-7.632 1.632-2.4 3.984-4.224 7.056-5.472a20.621 20.621 0 014.896-1.44 32.37 32.37 0 015.184-.432c3.168 0 6.264.432 9.288 1.296a69.026 69.026 0 019.072 3.312zm22.907 46.944a5.811 5.811 0 01-1.872-2.88c-.288-1.152-.432-2.136-.432-2.952 0-1.008.12-1.872.36-2.592-.192 0-.624.384-1.296 1.152a58.722 58.722 0 00-2.232 2.736 173.239 173.239 0 01-2.304 3.096 131.507 131.507 0 01-1.728 2.232c-.624.672-1.224 1.2-1.8 1.584-.528.384-.96.6-1.296.648-.768-.048-1.584-.216-2.448-.504a9.569 9.569 0 01-2.376-1.08 9.473 9.473 0 01-1.944-1.728 5.667 5.667 0 01-1.08-2.304c0-1.344.024-2.448.072-3.312.096-.864.264-1.8.504-2.808.432-1.824 1.056-3.888 1.872-6.192a70.388 70.388 0 012.952-6.768 46.675 46.675 0 013.672-6.264c1.392-1.968 2.856-3.504 4.392-4.608.432 0 .936.048 1.512.144a7.392 7.392 0 011.728.36c.624.192 1.2.432 1.728.72a3.9 3.9 0 011.44 1.008c-.432.48-1.536 2.088-3.312 4.824-1.728 2.736-3.672 6.672-5.832 11.808-.24.528-.528 1.296-.864 2.304a126.52 126.52 0 00-1.008 3.168 46.626 46.626 0 00-.864 3.24c-.192 1.056-.288 1.896-.288 2.52 0 .384.048.672.144.864.144.192.264.336.36.432.72-.288 1.632-1.08 2.736-2.376 1.104-1.296 2.64-3.288 4.608-5.976.48-.672 1.032-1.44 1.656-2.304a67.597 67.597 0 002.016-2.736 40.803 40.803 0 001.872-3.096 18.995 18.995 0 001.512-3.168c.192-.576.432-1.248.72-2.016a37.99 37.99 0 011.152-2.52 37.559 37.559 0 011.584-2.592 15.377 15.377 0 012.16-2.52c.624 0 1.296.072 2.016.216.72.144 1.392.336 2.016.576.672.192 1.248.432 1.728.72.48.24.84.504 1.08.792a81.497 81.497 0 01-2.88 6.264 141.39 141.39 0 00-2.952 6.12 49.945 49.945 0 00-2.304 5.904c-.624 1.968-.936 3.888-.936 5.76 0 1.008.072 1.896.216 2.664.192.72.384 1.344.576 1.872.192.48.36.888.504 1.224.192.336.288.624.288.864 0 .048-.048.12-.144.216-.048.048-.096.072-.144.072-.336 0-.768-.072-1.296-.216a14.012 14.012 0 01-1.8-.648 22.103 22.103 0 01-1.944-.864 22.315 22.315 0 01-1.8-1.08zm40.834-27.072a12.986 12.986 0 01-.504 2.88c-.24.96-.552 1.848-.936 2.664-.384.768-.792 1.416-1.224 1.944-.432.528-.84.792-1.224.792-.528-.048-.84-.408-.936-1.08 0-.144.048-.36.144-.648.144-.336.288-.696.432-1.08.144-.384.264-.768.36-1.152.144-.384.216-.72.216-1.008 0-.672-.168-1.224-.504-1.656-.288-.48-.696-.72-1.224-.72-1.92 0-3.384 1.2-4.392 3.6-1.008 2.4-1.512 5.928-1.512 10.584 0 .48.024.768.072.864a56.792 56.792 0 012.664-.072 40.484 40.484 0 012.376-.072c.048.096.072.288.072.576 0 .432-.096.744-.288.936-1.104.24-1.992.456-2.664.648-.624.144-1.104.288-1.44.432-.336.144-.552.312-.648.504-.048.144-.072.36-.072.648v1.152c.048.384.072.864.072 1.44 0 4.032-1.104 7.272-3.312 9.72-2.16 2.448-5.184 3.864-9.072 4.248-.672-.048-1.368-.24-2.088-.576a10.715 10.715 0 01-2.088-1.296 9.839 9.839 0 01-1.656-1.8c-.48-.624-.816-1.272-1.008-1.944 0-1.824.384-3.552 1.152-5.184.768-1.68 1.8-3.144 3.096-4.392a15.59 15.59 0 014.68-3.096c1.824-.816 3.792-1.296 5.904-1.44 0-1.2-.12-2.376-.36-3.528a56.008 56.008 0 00-.792-3.312c-.24-1.104-.48-2.16-.72-3.168a13.946 13.946 0 01-.36-3.096 9.71 9.71 0 01.792-3.816 13.694 13.694 0 012.088-3.528 12.92 12.92 0 013.024-2.808c1.152-.768 2.352-1.296 3.6-1.584.528.144 1.224.576 2.088 1.296.912.672 1.8 1.44 2.664 2.304a23.437 23.437 0 012.304 2.664c.672.864 1.08 1.584 1.224 2.16zm-23.76 32.832c1.152-.48 2.232-1.176 3.24-2.088a15.255 15.255 0 002.736-3.096 15.337 15.337 0 001.8-3.672c.48-1.296.72-2.568.72-3.816-.96.144-2.016.6-3.168 1.368a16.77 16.77 0 00-3.24 2.664 16.976 16.976 0 00-2.52 3.168c-.672 1.104-1.008 2.064-1.008 2.88 0 1.056.48 1.92 1.44 2.592zm23.739-5.4c0-1.68.168-3.648.504-5.904a82.119 82.119 0 011.44-7.344 199.61 199.61 0 012.304-8.136c.912-2.832 1.92-5.664 3.024-8.496a95.457 95.457 0 013.312-7.704 117.648 117.648 0 018.784-14.76A87.183 87.183 0 01256.067.24c.768 0 1.584.096 2.448.288a14.8 14.8 0 012.592.792c.864.288 1.632.648 2.304 1.08.72.432 1.296.864 1.728 1.296-3.6 3.696-6.84 7.44-9.72 11.232-2.88 3.744-5.16 7.272-6.84 10.584a469.27 469.27 0 00-2.52 5.112 100.515 100.515 0 00-2.016 4.752 77.784 77.784 0 00-1.728 4.68 87.953 87.953 0 00-1.368 4.896c9.216-11.76 16.056-17.64 20.52-17.64 1.248 0 2.592.408 4.032 1.224 1.44.816 2.712 1.92 3.816 3.312-1.488 1.632-3.024 3.6-4.608 5.904a99.236 99.236 0 00-4.392 6.984c-1.296 2.304-2.376 4.464-3.24 6.48-.816 1.968-1.224 3.432-1.224 4.392 0 .48.072.816.216 1.008.144.144.456.216.936.216.72 0 1.296-.096 1.728-.288.432-.192.696-.288.792-.288.24.384.384.648.432.792.048.144.072.264.072.36 0 .192-.288.48-.864.864-.576.336-1.272.696-2.088 1.08-.768.336-1.536.648-2.304.936-.768.288-1.344.432-1.728.432-.48 0-.96-.144-1.44-.432a4.307 4.307 0 01-1.296-1.008 7.16 7.16 0 01-.864-1.44 4.808 4.808 0 01-.288-1.656c0-.72.192-1.776.576-3.168.432-1.44 1.008-3.096 1.728-4.968.72-1.92 1.584-4.008 2.592-6.264a216.664 216.664 0 013.24-6.912c0-.192-.096-.288-.288-.288-.144 0-.528.192-1.152.576-.576.384-1.128.768-1.656 1.152-1.728 1.296-3.48 2.904-5.256 4.824a76.354 76.354 0 00-5.112 6.192 88.552 88.552 0 00-4.68 7.2 64.983 64.983 0 00-3.744 7.56 2.99 2.99 0 01-.648.936c-.288.288-.528.432-.72.432-.144 0-.36-.168-.648-.504a7.819 7.819 0 01-.72-1.296 51.05 51.05 0 01-.576-1.512c-.192-.528-.288-.984-.288-1.368zm37.339-3.6c0-.432.024-.96.072-1.584.096-.672.24-1.536.432-2.592.192-1.104.432-2.424.72-3.96.336-1.536.744-3.384 1.224-5.544.096-.48.312-1.248.648-2.304.336-1.056.768-2.16 1.296-3.312a24.95 24.95 0 012.016-3.456c.816-1.104 1.776-1.92 2.88-2.448.816.192 1.896.696 3.24 1.512 1.344.768 2.496 1.848 3.456 3.24a27.183 27.183 0 00-2.808 3.744 49.426 49.426 0 00-2.016 3.888 84.084 84.084 0 00-1.656 4.176 90.442 90.442 0 01-1.656 4.536 53.308 53.308 0 00-1.44 4.176c-.432 1.392-.672 2.616-.72 3.672 0 .864-.024 1.464-.072 1.8 0 .384-.12.576-.36.576-.192 0-.576-.12-1.152-.36s-1.176-.6-1.8-1.08a9.303 9.303 0 01-1.584-1.944c-.48-.768-.72-1.68-.72-2.736zm13.752-31.248c0-.288.072-.72.216-1.296-.24-.24-.456-.6-.648-1.08a4.56 4.56 0 01-.216-1.296c0-.432.048-1.008.144-1.728.144-.768.312-1.584.504-2.448.192-.864.432-1.752.72-2.664.288-.96.576-1.824.864-2.592.576 0 1.272.168 2.088.504.864.288 1.728.696 2.592 1.224.864.48 1.656 1.032 2.376 1.656.72.576 1.272 1.128 1.656 1.656a61.477 61.477 0 00-2.088 2.232 38.643 38.643 0 00-2.52 2.952 80.362 80.362 0 00-2.232 2.88c-.672.912-1.104 1.56-1.296 1.944a2.964 2.964 0 01-1.512-.72c-.432-.432-.648-.84-.648-1.224z" fill="#F7F7F7"/></svg>